<svg preserveAspectRatio="none" overflow="visible" width="1448" height="147" viewBox="0 0 1448 147" xmlns="http://www.w3.org/2000/svg" xmlns:c2pa="http://c2pa.org/manifest"><metadata><c2pa:manifest>AAAWgmp1bWIAAAAeanVtZGMycGEAEQAQgAAAqgA4m3EDYzJwYQAAABZcanVtYgAAAEdqdW1kYzJtYQARABCAAACqADibcQN1cm46YzJwYTo4ZTUyNWE1ZC02Yzc1LTQzZmUtYWVlYy03ZGEzYjFjZTg2MDkAAAADl2p1bWIAAAApanVtZGMyYXMAEQAQgAAAqgA4m3EDYzJwYS5hc3NlcnRpb25zAAAAALxqdW1iAAAARGp1bWRjYm9yABEAEIAAAKoAOJtxE2MycGEuaW5ncmVkaWVudC52MwAAAAAYYzJzaAbDz4PF9DW1kUo29MIRE2sAAABwY2JvcqNpZGM6Zm9ybWF0bWltYWdlL3N2Zyt4bWxqaW5zdGFuY2VJRHgseG1wOmlpZDo1YzE5YmI0NC01ZGU4LTQwMTAtYjE4Zi1hOThiMTNjYjYzOWZscmVsYXRpb25zaGlwaHBhcmVudE9mAAAB4mp1bWIAAABBanVtZGNib3IAEQAQgAAAqgA4m3ETYzJwYS5hY3Rpb25zLnYyAAAAABhjMnNoirO0HlMzIp7S2ywgizf+MAAAAZljYm9yomdhY3Rpb25zgqJmYWN0aW9ua2MycGEub3BlbmVkanBhcmFtZXRlcnOha2luZ3JlZGllbnRzgaJjdXJseC1zZWxmI2p1bWJmPWMycGEuYXNzZXJ0aW9ucy9jMnBhLmluZ3JlZGllbnQudjNkaGFzaFggFQf0IV6iemM4Oijn2gcAsveoQBLpjQMgy6NsfUqPCeykZmFjdGlvbngdY29tLmFudGhyb3BpYy5jbGF1ZGUucHJvdmlkZWRqcGFyYW1ldGVyc6F4H2NvbS5hbnRocm9waWMub3JpZ2luLWNvbmZpZGVuY2VndW5rbm93bmtkZXNjcmlwdGlvbnhmQ2xhdWRlIHByb3ZpZGVkIHRoaXMgZmlsZSBhdCB0aGUgcmVxdWVzdCBvZiBhIHVzZXIgYW5kIG1heSBoYXZlIGNyZWF0ZWQgb3IgbW9kaWZpZWQgdGhlIGZpbGUgY29udGVudHMubXNvZnR3YXJlQWdlbnShZG5hbWVmQ2xhdWRlcmFsbEFjdGlvbnNJbmNsdWRlZPUAAADIanVtYgAAAEBqdW1kY2JvcgARABCAAACqADibcRNjMnBhLmhhc2guZGF0YQAAAAAYYzJzaC+J2Kn+LWI1seKaW/KNRTUAAACAY2JvcqVjYWxnZnNoYTI1NmNwYWRNAAAAAAAAAAAAAAAAAGRoYXNoWCB7aiWZ4/lCJ/6BdN+VyXrfdB8vxAYJ+frMkCipGu2kGWRuYW1lbmp1bWJmIG1hbmlmZXN0amV4Y2x1c2lvbnOBomVzdGFydBjGZmxlbmd0aBkeBAAAAj5qdW1iAAAAJ2p1bWRjMmNsABEAEIAAAKoAOJtxA2MycGEuY2xhaW0udjIAAAACD2Nib3KlY2FsZ2ZzaGEyNTZpc2lnbmF0dXJleE1zZWxmI2p1bWJmPS9jMnBhL3VybjpjMnBhOjhlNTI1YTVkLTZjNzUtNDNmZS1hZWVjLTdkYTNiMWNlODYwOS9jMnBhLnNpZ25hdHVyZWppbnN0YW5jZUlEeCx4bXA6aWlkOmJiYmZhY2E0LTg4YTktNDVmYy1iZTZlLWExNjgzNDJkNTMwMHJjcmVhdGVkX2Fzc2VydGlvbnODomN1cmx4LXNlbGYjanVtYmY9YzJwYS5hc3NlcnRpb25zL2MycGEuaW5ncmVkaWVudC52M2RoYXNoWCAVB/QhXqJ6Yzg6KOfaBwCy96hAEumNAyDLo2x9So8J7KJjdXJseCpzZWxmI2p1bWJmPWMycGEuYXNzZXJ0aW9ucy9jMnBhLmFjdGlvbnMudjJkaGFzaFggAjuEIza2V1ujIIN4ckr0TcxSO4kt6f71WdQ/Sqm2SUGiY3VybHgpc2VsZiNqdW1iZj1jMnBhLmFzc2VydGlvbnMvYzJwYS5oYXNoLmRhdGFkaGFzaFggOrOegeqFF2rGdtJSaoGn/Q7Vro+L6RAcuUJ8bXIdnp90Y2xhaW1fZ2VuZXJhdG9yX2luZm+jZG5hbWVvQW50aHJvcGljIEZpbGVzZ3ZlcnNpb25lMS4wLjBrc3BlY1ZlcnNpb25lMi40LjAAABA4anVtYgAAAChqdW1kYzJjcwARABCAAACqADibcQNjMnBhLnNpZ25hdHVyZQAAABAIY2JvctKEWQISogEmGCFZAgowggIGMIIBjaADAgECAhRA5aAK7sI50L64g/oGQgU9Z1UTADAKBggqhkjOPQQDAzBJMRcwFQYDVQQKEw5BbnRocm9waWMsIFBCQzEuMCwGA1UEAxMlQW50aHJvcGljIENvbnRlbnQgQ3JlZGVudGlhbHMgUm9vdCBDQTAeFw0yNjA4MDcxODQzNTZaFw0yODA4MDYxOTQzNTZaMEQxFzAVBgNVBAoTDkFudGhyb3BpYywgUEJDMSkwJwYDVQQDEyBBbnRocm9waWMgQ2xhdWRlIENvbnRlbnQgU2lnbmluZzBZMBMGByqGSM49AgEGCCqGSM49AwEHA0IABJh6CmvLUBgFFNU0vUKlOVtE6djd17L5SuwX0LemFisBM3dkd/3cyjxFA3Qo5S46fX0/ihY0VZ7mfb9KF703t5OjWDBWMA4GA1UdDwEB/wQEAwIHgDAVBgNVHSUEDjAMBgorBgEEAYPoXgIBMAwGA1UdEwEB/wQCMAAwHwYDVR0jBBgwFoAUzlHiBIFOZFsj+OPEz5o+nMHXXMIwCgYIKoZIzj0EAwMDZwAwZAIwMXMdFJ4BetLLVY7ORuE9noqbbAZOZn/aArXyTwFAZfKrPzxF2vPoJNf1+UCdg1XGAjBwX1zd9WGqYkqmL5SFqw1QySjr1zJfpJM9+1rdDwSPLMOPOjKuiXjoU/pUUeG9RwmhY3BhZFkNngAAAAAAAAAAAAAAAAAAAAAAAAAAAAAAAAAAAAAAAAAAAAAAAAAAAAAAAAAAAAAAAAAAAAAAAAAAAAAAAAAAAAAAAAAAAAAAAAAAAAAAAAAAAAAAAAAAAAAAAAAAAAAAAAAAAAAAAAAAAAAAAAAAAAAAAAAAAAAAAAAAAAAAAAAAAAAAAAAAAAAAAAAAAAAAAAAAAAAAAAAAAAAAAAAAAAAAAAAAAAAAAAAAAAAAAAAAAAAAAAAAAAAAAAAAAAAAAAAAAAAAAAAAAAAAAAAAAAAAAAAAAAAAAAAAAAAAAAAAAAAAAAAAAAAAAAAAAAAAAAAAAAAAAAAAAAAAAAAAAAAAAAAAAAAAAAAAAAAAAAAAAAAAAAAAAAAAAAAAAAAAAAAAAAAAAAAAAAAAAAAAAAAAAAAAAAAAAAAAAAAAAAAAAAAAAAAAAAAAAAAAAAAAAAAAAAAAAAAAAAAAAAAAAAAAAAAAAAAAAAAAAAAAAAAAAAAAAAAAAAAAAAAAAAAAAAAAAAAAAAAAAAAAAAAAAAAAAAAAAAAAAAAAAAAAAAAAAAAAAAAAAAAAAAAAAAAAAAAAAAAAAAAAAAAAAAAAAAAAAAAAAAAAAAAAAAAAAAAAAAAAAAAAAAAAAAAAAAAAAAAAAAAAAAAAAAAAAAAAAAAAAAAAAAAAAAAAAAAAAAAAAAAAAAAAAAAAAAAAAAAAAAAAAAAAAAAAAAAAAAAAAAAAAAAAAAAAAAAAAAAAAAAAAAAAAAAAAAAAAAAAAAAAAAAAAAAAAAAAAAAAAAAAAAAAAAAAAAAAAAAAAAAAAAAAAAAAAAAAAAAAAAAAAAAAAAAAAAAAAAAAAAAAAAAAAAAAAAAAAAAAAAAAAAAAAAAAAAAAAAAAAAAAAAAAAAAAAAAAAAAAAAAAAAAAAAAAAAAAAAAAAAAAAAAAAAAAAAAAAAAAAAAAAAAAAAAAAAAAAAAAAAAAAAAAAAAAAAAAAAAAAAAAAAAAAAAAAAAAAAAAAAAAAAAAAAAAAAAAAAAAAAAAAAAAAAAAAAAAAAAAAAAAAAAAAAAAAAAAAAAAAAAAAAAAAAAAAAAAAAAAAAAAAAAAAAAAAAAAAAAAAAAAAAAAAAAAAAAAAAAAAAAAAAAAAAAAAAAAAAAAAAAAAAAAAAAAAAAAAAAAAAAAAAAAAAAAAAAAAAAAAAAAAAAAAAAAAAAAAAAAAAAAAAAAAAAAAAAAAAAAAAAAAAAAAAAAAAAAAAAAAAAAAAAAAAAAAAAAAAAAAAAAAAAAAAAAAAAAAAAAAAAAAAAAAAAAAAAAAAAAAAAAAAAAAAAAAAAAAAAAAAAAAAAAAAAAAAAAAAAAAAAAAAAAAAAAAAAAAAAAAAAAAAAAAAAAAAAAAAAAAAAAAAAAAAAAAAAAAAAAAAAAAAAAAAAAAAAAAAAAAAAAAAAAAAAAAAAAAAAAAAAAAAAAAAAAAAAAAAAAAAAAAAAAAAAAAAAAAAAAAAAAAAAAAAAAAAAAAAAAAAAAAAAAAAAAAAAAAAAAAAAAAAAAAAAAAAAAAAAAAAAAAAAAAAAAAAAAAAAAAAAAAAAAAAAAAAAAAAAAAAAAAAAAAAAAAAAAAAAAAAAAAAAAAAAAAAAAAAAAAAAAAAAAAAAAAAAAAAAAAAAAAAAAAAAAAAAAAAAAAAAAAAAAAAAAAAAAAAAAAAAAAAAAAAAAAAAAAAAAAAAAAAAAAAAAAAAAAAAAAAAAAAAAAAAAAAAAAAAAAAAAAAAAAAAAAAAAAAAAAAAAAAAAAAAAAAAAAAAAAAAAAAAAAAAAAAAAAAAAAAAAAAAAAAAAAAAAAAAAAAAAAAAAAAAAAAAAAAAAAAAAAAAAAAAAAAAAAAAAAAAAAAAAAAAAAAAAAAAAAAAAAAAAAAAAAAAAAAAAAAAAAAAAAAAAAAAAAAAAAAAAAAAAAAAAAAAAAAAAAAAAAAAAAAAAAAAAAAAAAAAAAAAAAAAAAAAAAAAAAAAAAAAAAAAAAAAAAAAAAAAAAAAAAAAAAAAAAAAAAAAAAAAAAAAAAAAAAAAAAAAAAAAAAAAAAAAAAAAAAAAAAAAAAAAAAAAAAAAAAAAAAAAAAAAAAAAAAAAAAAAAAAAAAAAAAAAAAAAAAAAAAAAAAAAAAAAAAAAAAAAAAAAAAAAAAAAAAAAAAAAAAAAAAAAAAAAAAAAAAAAAAAAAAAAAAAAAAAAAAAAAAAAAAAAAAAAAAAAAAAAAAAAAAAAAAAAAAAAAAAAAAAAAAAAAAAAAAAAAAAAAAAAAAAAAAAAAAAAAAAAAAAAAAAAAAAAAAAAAAAAAAAAAAAAAAAAAAAAAAAAAAAAAAAAAAAAAAAAAAAAAAAAAAAAAAAAAAAAAAAAAAAAAAAAAAAAAAAAAAAAAAAAAAAAAAAAAAAAAAAAAAAAAAAAAAAAAAAAAAAAAAAAAAAAAAAAAAAAAAAAAAAAAAAAAAAAAAAAAAAAAAAAAAAAAAAAAAAAAAAAAAAAAAAAAAAAAAAAAAAAAAAAAAAAAAAAAAAAAAAAAAAAAAAAAAAAAAAAAAAAAAAAAAAAAAAAAAAAAAAAAAAAAAAAAAAAAAAAAAAAAAAAAAAAAAAAAAAAAAAAAAAAAAAAAAAAAAAAAAAAAAAAAAAAAAAAAAAAAAAAAAAAAAAAAAAAAAAAAAAAAAAAAAAAAAAAAAAAAAAAAAAAAAAAAAAAAAAAAAAAAAAAAAAAAAAAAAAAAAAAAAAAAAAAAAAAAAAAAAAAAAAAAAAAAAAAAAAAAAAAAAAAAAAAAAAAAAAAAAAAAAAAAAAAAAAAAAAAAAAAAAAAAAAAAAAAAAAAAAAAAAAAAAAAAAAAAAAAAAAAAAAAAAAAAAAAAAAAAAAAAAAAAAAAAAAAAAAAAAAAAAAAAAAAAAAAAAAAAAAAAAAAAAAAAAAAAAAAAAAAAAAAAAAAAAAAAAAAAAAAAAAAAAAAAAAAAAAAAAAAAAAAAAAAAAAAAAAAAAAAAAAAAAAAAAAAAAAAAAAAAAAAAAAAAAAAAAAAAAAAAAAAAAAAAAAAAAAAAAAAAAAAAAAAAAAAAAAAAAAAAAAAAAAAAAAAAAAAAAAAAAAAAAAAAAAAAAAAAAAAAAAAAAAAAAAAAAAAAAAAAAAAAAAAAAAAAAAAAAAAAAAAAAAAAAAAAAAAAAAAAAAAAAAAAAAAAAAAAAAAAAAAAAAAAAAAAAAAAAAAAAAAAAAAAAAAAAAAAAAAAAAAAAAAAAAAAAAAAAAAAAAAAAAAAAAAAAAAAAAAAAAAAAAAAAAAAAAAAAAAAAAAAAAAAAAAAAAAAAAAAAAAAAAAAAAAAAAAAAAAAAAAAAAAAAAAAAAAAAAAAAAAAAAAAAAAAAAAAAAAAAAAAAAAAAAAAAAAAAAAAAAAAAAAAAAAAAAAAAAAAAAAAAAAAAAAAAAAAAAAAAAAAAAAAAAAAAAAAAAAAAAAAAAAAAAAAAAAAAAAAAAAAAAAAAAAAAAAAAAAAAAAAAAAAAAAAAAAAAAAAAAAAAAAAAAAAAAAAAAAAAAAAAAAAAAAAAAAAAAAAAAAAAAAAAAAAAAAAAAAAAAAAAAAAAAAAAAAAAAAAAAAAAAAAAAAAAAAAAAAAAAAAAAAAAAAAAAAAAAAAAAAAAAAAAAAAAAAAAAAAAAAAAAAAAAAAAAAAAAAAAAAAAAAAAAAAAAAAAAAAAAAAAAAAAAAAAAAAAAAAAAAAAAAAAAAAAAAAAAAAAAAAAAAAAAAAAAAAAAAAAAAAAAAAAAAAAAAAAAAAAAAAAAAAAAAAAAAAAAAAAAAAAAAAAAAAAAAAAAAAAAAAAAAAAAAAAAAAAAAAAAAAAAAAAAAAAAAAAAAAAAAAAAAAAAAAAAAAAAAAAAAAAAAAAAAAAAAAAAAAAAAAAAAAAAAAAAAAAAAAAAAAAAAAAAAAAAAAAAAAAAAAAAAAAAAAAAAAAAAAAAAAAAAAAAAAAAAAAAAAAAAAAAAAAAAAAAAAAAAAAAAAAAAAAAAAAAAAAAAAAAAAAAAAAAAAAAAAAAAAAAAAAAAAAAAAAAAAAAAAAAAAAAAAAAAAAAAAAAAAAAAAAAAAAAAAAAAAAAAAAAAAAAAAAAAAAAAAAAAAAAAAAAAAAAAAAAAAAAAAAAAAAAAAAAAAAAAAAAAAAAAAAAAAAAAAAAAAAAAAAAAAAAAAAAAAAAAAAAAAAAAAAAAAAAAAAAAAAAAAAAAAAAAAAAAAAAAAAAAAAAAAAAAAAAAAAAAAAAAAAAAAAAAAAAAAAAAAAAAAAAAAAAAAAAAAAAAAAAAAAAAAAAAAAAAAAAAAAAAAAAAAAAAAAAAAAAAAAAAAAAAAAAAAAAAAAAAAAAAAAAAAAAAAAAAAAAAAAAAAAAAAAAAAAAAAAAAAAAAAAAAAAAAAAAAAAAAAAAAAAAAAAAAAAAAAAAAAAAAAAAAAAAAAAAAAAAAAAAAAAAAAAAAAAAAAAAAAAAAAAAAAAAAAAAAAAAAAAAAAAAAAAAAAAAAAAAAAAAAAAAAAAAAAAAAAAAAAAAAAAAAAAAAAAAAAAAAAAAAAAAAAAAAAAAAAAAAAAAAAAAAAAAAAAAAAAAAAAAAAAAAAAAAAAAAAAAAAAAAAAAAAAAAAAAAAAAAAAAAAAAAAAAAAAAAAAAAAAAAAAPZYQL+FXZYmjgU2eC+eNF1jt99cYE8FVuR7CbPlZQovltFtzVWZZri2yRz0EKVNfTgrSJ5BOVK/iqvCe2K6sP32qiE=</c2pa:manifest></metadata>
<path d="M 15.95 19.95 L 16.09 18.91 L 16.49 17.95 L 17.12 17.12 L 17.95 16.49 L 18.91 16.09 L 19.95 15.95 L 19.95 15.62 L 31.98 15.63 L 44.02 16.86 L 56.05 16.46 L 68.08 14.83 L 80.12 17.15 L 92.15 16.36 L 104.18 17.10 L 116.22 15.23 L 128.25 16.73 L 140.28 16.30 L 152.32 16.31 L 164.35 17.27 L 176.38 17.15 L 188.42 14.57 L 200.45 16.02 L 212.48 16.76 L 224.52 17.36 L 236.55 14.84 L 248.58 14.92 L 260.62 16.25 L 272.65 15.55 L 284.68 17.30 L 296.72 16.67 L 308.75 14.51 L 320.78 15.05 L 332.82 15.08 L 344.85 16.78 L 356.88 17.12 L 368.92 17.30 L 380.95 15.26 L 392.98 14.84 L 405.02 15.28 L 417.05 16.42 L 429.08 14.98 L 441.12 14.52 L 453.15 15.73 L 465.18 15.13 L 477.22 14.59 L 489.25 15.47 L 501.28 14.33 L 513.32 17.13 L 525.35 17.40 L 537.38 16.77 L 549.42 15.72 L 561.45 14.60 L 573.48 16.81 L 585.52 17.05 L 597.55 15.96 L 609.58 17.39 L 621.62 15.43 L 633.65 17.53 L 645.68 15.93 L 657.72 14.65 L 669.75 14.54 L 681.78 17.16 L 693.82 14.02 L 705.85 17.05 L 717.88 17.08 L 729.92 14.78 L 741.95 14.98 L 753.98 14.80 L 766.02 16.15 L 778.05 15.92 L 790.08 17.36 L 802.12 17.75 L 814.15 14.61 L 826.18 16.82 L 838.22 16.10 L 850.25 14.56 L 862.28 17.78 L 874.32 17.42 L 886.35 14.77 L 898.38 14.56 L 910.42 16.92 L 922.45 17.39 L 934.48 14.87 L 946.52 14.22 L 958.55 14.48 L 970.58 16.60 L 982.62 14.42 L 994.65 14.35 L 1006.68 15.56 L 1018.72 16.89 L 1030.75 16.08 L 1042.78 14.41 L 1054.82 16.96 L 1066.85 15.95 L 1078.88 14.43 L 1090.92 17.28 L 1102.95 17.21 L 1114.98 17.23 L 1127.02 14.91 L 1139.05 15.06 L 1151.08 14.76 L 1163.12 15.38 L 1175.15 14.39 L 1187.18 15.33 L 1199.22 14.93 L 1211.25 17.40 L 1223.28 15.43 L 1235.32 14.78 L 1247.35 17.09 L 1259.38 15.28 L 1271.42 15.48 L 1283.45 16.22 L 1295.48 16.39 L 1307.52 16.66 L 1319.55 16.86 L 1331.58 14.87 L 1343.62 16.61 L 1355.65 15.61 L 1367.68 15.28 L 1379.72 16.02 L 1391.75 15.88 L 1403.78 17.03 L 1415.82 16.37 L 1427.85 16.77 L 1427.85 15.95 L 1428.89 16.09 L 1429.85 16.49 L 1430.68 17.12 L 1431.31 17.95 L 1431.71 18.91 L 1431.85 19.95 L 1431.16 19.95 L 1432.38 33.31 L 1433.20 46.67 L 1431.24 60.04 L 1431.76 73.40 L 1432.31 86.76 L 1433.45 100.13 L 1432.07 113.49 L 1430.68 126.85 L 1431.85 126.85 L 1431.71 127.89 L 1431.31 128.85 L 1430.68 129.68 L 1429.85 130.31 L 1428.89 130.71 L 1427.85 130.85 L 1427.85 129.80 L 1415.82 131.45 L 1403.78 130.21 L 1391.75 131.17 L 1379.72 132.08 L 1367.68 131.44 L 1355.65 131.64 L 1343.62 130.47 L 1331.58 129.52 L 1319.55 130.90 L 1307.52 131.11 L 1295.48 131.64 L 1283.45 131.07 L 1271.42 129.59 L 1259.38 129.90 L 1247.35 131.72 L 1235.32 129.96 L 1223.28 129.90 L 1211.25 132.31 L 1199.22 130.94 L 1187.18 131.76 L 1175.15 130.86 L 1163.12 130.37 L 1151.08 132.46 L 1139.05 132.48 L 1127.02 130.15 L 1114.98 129.87 L 1102.95 131.02 L 1090.92 129.56 L 1078.88 131.68 L 1066.85 130.49 L 1054.82 130.09 L 1042.78 131.27 L 1030.75 129.62 L 1018.72 129.22 L 1006.68 132.42 L 994.65 129.78 L 982.62 129.91 L 970.58 130.80 L 958.55 131.47 L 946.52 129.87 L 934.48 131.92 L 922.45 131.29 L 910.42 131.33 L 898.38 129.63 L 886.35 132.67 L 874.32 131.93 L 862.28 129.38 L 850.25 130.40 L 838.22 131.79 L 826.18 129.56 L 814.15 132.65 L 802.12 130.69 L 790.08 128.93 L 778.05 129.19 L 766.02 132.67 L 753.98 129.23 L 741.95 129.20 L 729.92 130.48 L 717.88 131.90 L 705.85 132.50 L 693.82 131.33 L 681.78 131.14 L 669.75 129.56 L 657.72 132.30 L 645.68 131.40 L 633.65 130.35 L 621.62 131.63 L 609.58 131.93 L 597.55 129.23 L 585.52 129.22 L 573.48 130.80 L 561.45 129.59 L 549.42 131.80 L 537.38 129.39 L 525.35 129.62 L 513.32 130.22 L 501.28 132.14 L 489.25 129.68 L 477.22 129.77 L 465.18 129.80 L 453.15 131.66 L 441.12 131.98 L 429.08 130.16 L 417.05 130.74 L 405.02 129.56 L 392.98 130.46 L 380.95 132.49 L 368.92 129.14 L 356.88 131.84 L 344.85 130.69 L 332.82 131.58 L 320.78 131.23 L 308.75 130.74 L 296.72 131.58 L 284.68 129.75 L 272.65 130.08 L 260.62 129.74 L 248.58 132.31 L 236.55 129.87 L 224.52 129.65 L 212.48 130.94 L 200.45 131.67 L 188.42 131.33 L 176.38 131.42 L 164.35 129.63 L 152.32 131.43 L 140.28 129.44 L 128.25 132.06 L 116.22 132.22 L 104.18 131.70 L 92.15 131.24 L 80.12 130.82 L 68.08 131.94 L 56.05 130.99 L 44.02 131.70 L 31.98 131.70 L 19.95 131.88 L 19.95 130.85 L 18.91 130.71 L 17.95 130.31 L 17.12 129.68 L 16.49 128.85 L 16.09 127.89 L 15.95 126.85 L 16.98 126.85 L 17.16 113.49 L 17.07 100.13 L 15.69 86.76 L 14.25 73.40 L 15.77 60.04 L 16.65 46.67 L 17.06 33.31 L 16.99 19.95 Z" fill="none" stroke="#000" stroke-width="11.00" stroke-linejoin="round" stroke-linecap="round" opacity="1.0"/>
<path d="M 15.95 19.95 L 16.09 18.91 L 16.49 17.95 L 17.12 17.12 L 17.95 16.49 L 18.91 16.09 L 19.95 15.95 L 19.95 15.67 L 31.98 17.17 L 44.02 15.07 L 56.05 16.60 L 68.08 14.85 L 80.12 14.79 L 92.15 16.34 L 104.18 15.00 L 116.22 14.90 L 128.25 14.70 L 140.28 17.03 L 152.32 15.28 L 164.35 16.62 L 176.38 15.10 L 188.42 16.52 L 200.45 15.19 L 212.48 14.89 L 224.52 16.98 L 236.55 15.55 L 248.58 16.93 L 260.62 15.43 L 272.65 15.23 L 284.68 15.16 L 296.72 16.84 L 308.75 14.58 L 320.78 17.35 L 332.82 14.62 L 344.85 17.53 L 356.88 15.07 L 368.92 17.25 L 380.95 15.34 L 392.98 16.59 L 405.02 16.01 L 417.05 17.12 L 429.08 17.09 L 441.12 16.94 L 453.15 17.33 L 465.18 14.39 L 477.22 14.87 L 489.25 15.42 L 501.28 16.94 L 513.32 15.94 L 525.35 17.12 L 537.38 15.19 L 549.42 16.76 L 561.45 15.91 L 573.48 16.82 L 585.52 16.60 L 597.55 15.44 L 609.58 15.90 L 621.62 14.86 L 633.65 14.49 L 645.68 17.39 L 657.72 14.47 L 669.75 17.36 L 681.78 16.66 L 693.82 15.14 L 705.85 16.49 L 717.88 15.26 L 729.92 14.88 L 741.95 17.76 L 753.98 15.57 L 766.02 16.07 L 778.05 16.18 L 790.08 16.38 L 802.12 14.43 L 814.15 14.80 L 826.18 16.68 L 838.22 17.28 L 850.25 17.08 L 862.28 14.62 L 874.32 17.37 L 886.35 14.71 L 898.38 17.31 L 910.42 17.19 L 922.45 16.32 L 934.48 17.16 L 946.52 17.63 L 958.55 17.58 L 970.58 15.77 L 982.62 14.36 L 994.65 16.34 L 1006.68 17.30 L 1018.72 14.80 L 1030.75 16.29 L 1042.78 16.34 L 1054.82 17.12 L 1066.85 14.93 L 1078.88 17.40 L 1090.92 16.56 L 1102.95 16.01 L 1114.98 17.26 L 1127.02 16.42 L 1139.05 15.41 L 1151.08 16.70 L 1163.12 16.76 L 1175.15 15.17 L 1187.18 15.55 L 1199.22 14.71 L 1211.25 16.72 L 1223.28 16.83 L 1235.32 14.73 L 1247.35 16.83 L 1259.38 16.28 L 1271.42 16.38 L 1283.45 15.82 L 1295.48 16.98 L 1307.52 15.82 L 1319.55 16.47 L 1331.58 16.99 L 1343.62 16.36 L 1355.65 15.73 L 1367.68 17.15 L 1379.72 15.59 L 1391.75 16.39 L 1403.78 15.11 L 1415.82 16.57 L 1427.85 15.78 L 1427.85 15.95 L 1428.89 16.09 L 1429.85 16.49 L 1430.68 17.12 L 1431.31 17.95 L 1431.71 18.91 L 1431.85 19.95 L 1430.84 19.95 L 1430.46 33.31 L 1430.39 46.67 L 1430.43 60.04 L 1432.47 73.40 L 1431.22 86.76 L 1430.84 100.13 L 1432.84 113.49 L 1432.53 126.85 L 1431.85 126.85 L 1431.71 127.89 L 1431.31 128.85 L 1430.68 129.68 L 1429.85 130.31 L 1428.89 130.71 L 1427.85 130.85 L 1427.85 131.78 L 1415.82 130.92 L 1403.78 131.85 L 1391.75 130.50 L 1379.72 130.32 L 1367.68 129.64 L 1355.65 130.79 L 1343.62 131.68 L 1331.58 131.80 L 1319.55 131.38 L 1307.52 131.42 L 1295.48 130.86 L 1283.45 131.83 L 1271.42 130.57 L 1259.38 130.77 L 1247.35 129.83 L 1235.32 130.45 L 1223.28 130.58 L 1211.25 131.94 L 1199.22 131.78 L 1187.18 130.06 L 1175.15 132.07 L 1163.12 130.65 L 1151.08 129.87 L 1139.05 131.87 L 1127.02 131.10 L 1114.98 130.78 L 1102.95 129.63 L 1090.92 132.30 L 1078.88 129.85 L 1066.85 130.13 L 1054.82 132.22 L 1042.78 129.17 L 1030.75 132.06 L 1018.72 131.48 L 1006.68 129.82 L 994.65 131.93 L 982.62 130.46 L 970.58 130.87 L 958.55 131.07 L 946.52 130.50 L 934.48 130.69 L 922.45 131.92 L 910.42 130.35 L 898.38 132.28 L 886.35 130.17 L 874.32 129.43 L 862.28 130.03 L 850.25 129.09 L 838.22 130.33 L 826.18 129.42 L 814.15 129.47 L 802.12 132.31 L 790.08 132.52 L 778.05 129.31 L 766.02 130.00 L 753.98 131.38 L 741.95 130.06 L 729.92 129.11 L 717.88 131.83 L 705.85 132.28 L 693.82 131.93 L 681.78 129.40 L 669.75 131.91 L 657.72 129.96 L 645.68 131.70 L 633.65 130.79 L 621.62 129.38 L 609.58 132.42 L 597.55 132.53 L 585.52 130.50 L 573.48 129.58 L 561.45 129.41 L 549.42 131.88 L 537.38 130.99 L 525.35 130.69 L 513.32 131.65 L 501.28 129.22 L 489.25 132.24 L 477.22 129.44 L 465.18 131.55 L 453.15 131.01 L 441.12 129.41 L 429.08 131.30 L 417.05 132.09 L 405.02 129.78 L 392.98 131.41 L 380.95 131.06 L 368.92 131.34 L 356.88 131.78 L 344.85 131.24 L 332.82 130.80 L 320.78 131.75 L 308.75 129.61 L 296.72 132.36 L 284.68 129.56 L 272.65 129.95 L 260.62 130.12 L 248.58 130.84 L 236.55 132.07 L 224.52 130.50 L 212.48 129.66 L 200.45 130.20 L 188.42 131.37 L 176.38 129.94 L 164.35 129.74 L 152.32 131.92 L 140.28 129.80 L 128.25 131.06 L 116.22 131.52 L 104.18 130.84 L 92.15 131.56 L 80.12 129.81 L 68.08 130.53 L 56.05 131.11 L 44.02 131.23 L 31.98 129.81 L 19.95 131.38 L 19.95 130.85 L 18.91 130.71 L 17.95 130.31 L 17.12 129.68 L 16.49 128.85 L 16.09 127.89 L 15.95 126.85 L 15.87 126.85 L 16.72 113.49 L 16.49 100.13 L 17.83 86.76 L 17.89 73.40 L 17.77 60.04 L 16.27 46.67 L 15.80 33.31 L 15.02 19.95 Z" fill="none" stroke="#000" stroke-width="4.95" stroke-linejoin="round" stroke-linecap="round" opacity="0.35"/>
</svg>